G04 #@! TF.FileFunction,Copper,L1,Top,Signal*
%FSLAX46Y46*%
G04 Gerber Fmt 4.6, Leading zero omitted, Abs format (unit mm)*
G04 Created by KiCad (PCBNEW 4.0.2+dfsg1-stable) date 2019年09月16日 21時23分18秒*
%MOMM*%
G01*
G04 APERTURE LIST*
%ADD10C,0.100000*%
%ADD11R,1.508000X1.508000*%
%ADD12C,1.508000*%
%ADD13R,1.300000X1.300000*%
%ADD14C,1.300000*%
%ADD15R,2.032000X2.032000*%
%ADD16O,2.032000X2.032000*%
%ADD17R,1.727200X2.032000*%
%ADD18O,1.727200X2.032000*%
%ADD19R,2.032000X1.727200*%
%ADD20O,2.032000X1.727200*%
%ADD21R,0.800100X0.800100*%
%ADD22C,1.998980*%
%ADD23O,2.524000X1.524000*%
%ADD24R,1.824000X1.524000*%
%ADD25O,1.824000X1.524000*%
%ADD26O,3.048000X1.727200*%
%ADD27O,1.600000X2.300000*%
%ADD28R,1.050000X1.050000*%
%ADD29C,1.050000*%
%ADD30O,1.524000X3.048000*%
%ADD31R,1.524000X1.824000*%
%ADD32O,1.524000X1.824000*%
%ADD33C,0.250000*%
G04 APERTURE END LIST*
D10*
D11*
X35560000Y-136160000D03*
D12*
X35560000Y-133620000D03*
X38100000Y-136160000D03*
X38100000Y-133620000D03*
X40640000Y-136160000D03*
X40640000Y-133620000D03*
X43180000Y-136160000D03*
X43180000Y-133620000D03*
X45720000Y-136160000D03*
X45720000Y-133620000D03*
X48260000Y-136160000D03*
X48260000Y-133620000D03*
X50800000Y-136160000D03*
X50800000Y-133620000D03*
X53340000Y-136160000D03*
X53340000Y-133620000D03*
X55880000Y-136160000D03*
X55880000Y-133620000D03*
X58420000Y-136160000D03*
X58420000Y-133620000D03*
X60960000Y-136160000D03*
X60960000Y-133620000D03*
X63500000Y-136160000D03*
X63500000Y-133620000D03*
X66040000Y-136160000D03*
X66040000Y-133620000D03*
X68580000Y-136160000D03*
X68580000Y-133620000D03*
X71120000Y-136160000D03*
X71120000Y-133620000D03*
X73660000Y-136160000D03*
X73660000Y-133620000D03*
X76200000Y-136160000D03*
X76200000Y-133620000D03*
X78740000Y-136160000D03*
X78740000Y-133620000D03*
X81280000Y-136160000D03*
X81280000Y-133620000D03*
X83820000Y-136160000D03*
X83820000Y-133620000D03*
D13*
X115570000Y-150130000D03*
D14*
X113070000Y-150130000D03*
D13*
X107950000Y-150130000D03*
D14*
X110450000Y-150130000D03*
D15*
X113030000Y-161560000D03*
D16*
X115570000Y-161560000D03*
D15*
X113030000Y-166640000D03*
D16*
X115570000Y-166640000D03*
D15*
X113030000Y-156480000D03*
D16*
X115570000Y-156480000D03*
D15*
X102870000Y-150130000D03*
D16*
X100330000Y-150130000D03*
D15*
X102870000Y-156480000D03*
D16*
X100330000Y-156480000D03*
D15*
X102870000Y-161560000D03*
D16*
X100330000Y-161560000D03*
D15*
X102870000Y-166640000D03*
D16*
X100330000Y-166640000D03*
D17*
X113030000Y-127270000D03*
D18*
X115570000Y-127270000D03*
X118110000Y-127270000D03*
X120650000Y-127270000D03*
D17*
X93980000Y-166640000D03*
D18*
X91440000Y-166640000D03*
X88900000Y-166640000D03*
X86360000Y-166640000D03*
X83820000Y-166640000D03*
X81280000Y-166640000D03*
D17*
X58420000Y-166640000D03*
D18*
X55880000Y-166640000D03*
X53340000Y-166640000D03*
X50800000Y-166640000D03*
X48260000Y-166640000D03*
X45720000Y-166640000D03*
X43180000Y-166640000D03*
X40640000Y-166640000D03*
D17*
X73660000Y-166640000D03*
D18*
X71120000Y-166640000D03*
X68580000Y-166640000D03*
X66040000Y-166640000D03*
D17*
X35560000Y-166640000D03*
D18*
X33020000Y-166640000D03*
X30480000Y-166640000D03*
D15*
X29730000Y-124910000D03*
D16*
X29730000Y-127450000D03*
D19*
X29730000Y-99510000D03*
D20*
X29730000Y-102050000D03*
X29730000Y-104590000D03*
D19*
X29730000Y-94430000D03*
D20*
X29730000Y-91890000D03*
X29730000Y-89350000D03*
X29730000Y-86810000D03*
X29730000Y-84270000D03*
X29730000Y-81730000D03*
X29730000Y-79190000D03*
X29730000Y-76650000D03*
D19*
X29730000Y-109670000D03*
D20*
X29730000Y-112210000D03*
X29730000Y-114750000D03*
X29730000Y-117290000D03*
D21*
X66290760Y-113160000D03*
X66290760Y-111260000D03*
X64291780Y-112210000D03*
X66290760Y-108080000D03*
X66290760Y-106180000D03*
X64291780Y-107130000D03*
X66290760Y-103000000D03*
X66290760Y-101100000D03*
X64291780Y-102050000D03*
D22*
X97790000Y-139970000D03*
X97790000Y-132350000D03*
X95250000Y-132350000D03*
X95250000Y-139970000D03*
X44250000Y-76740000D03*
X36630000Y-76740000D03*
X44250000Y-79740000D03*
X36630000Y-79740000D03*
X44250000Y-82740000D03*
X36630000Y-82740000D03*
X44250000Y-85740000D03*
X36630000Y-85740000D03*
X44250000Y-88740000D03*
X36630000Y-88740000D03*
X60210000Y-94430000D03*
X60210000Y-86810000D03*
X44250000Y-91740000D03*
X36630000Y-91740000D03*
X44250000Y-94740000D03*
X36630000Y-94740000D03*
X44250000Y-97740000D03*
X36630000Y-97740000D03*
X62750000Y-94430000D03*
X62750000Y-86810000D03*
X80530000Y-127450000D03*
X72910000Y-127450000D03*
X80530000Y-117290000D03*
X72910000Y-117290000D03*
X80530000Y-102050000D03*
X72910000Y-102050000D03*
X80530000Y-86810000D03*
X72910000Y-86810000D03*
X65290000Y-94430000D03*
X65290000Y-86810000D03*
D23*
X57670000Y-127450000D03*
X57670000Y-124910000D03*
X57670000Y-122370000D03*
X57670000Y-119830000D03*
X57670000Y-117290000D03*
X42430000Y-117290000D03*
X42430000Y-119830000D03*
X42430000Y-122370000D03*
X42430000Y-124910000D03*
X42430000Y-127450000D03*
X57670000Y-114750000D03*
X57670000Y-112210000D03*
X57670000Y-109670000D03*
X57670000Y-107130000D03*
X57670000Y-104590000D03*
X42430000Y-104590000D03*
X42430000Y-107130000D03*
X42430000Y-109670000D03*
X42430000Y-112210000D03*
X42430000Y-114750000D03*
D24*
X72910000Y-122370000D03*
D25*
X80530000Y-122370000D03*
D26*
X71640000Y-112210000D03*
X71640000Y-107130000D03*
X84340000Y-112210000D03*
X84340000Y-107130000D03*
X71640000Y-96970000D03*
X71640000Y-91890000D03*
X84340000Y-96970000D03*
X84340000Y-91890000D03*
X71640000Y-81730000D03*
X71640000Y-76650000D03*
X84340000Y-81730000D03*
X84340000Y-76650000D03*
D27*
X120650000Y-132350000D03*
X118110000Y-132350000D03*
X115570000Y-132350000D03*
X113030000Y-132350000D03*
X110490000Y-132350000D03*
X107950000Y-132350000D03*
X105410000Y-132350000D03*
X102870000Y-132350000D03*
X102870000Y-139970000D03*
X105410000Y-139970000D03*
X107950000Y-139970000D03*
X110490000Y-139970000D03*
X113030000Y-139970000D03*
X115570000Y-139970000D03*
X118110000Y-139970000D03*
X120650000Y-139970000D03*
D28*
X47510000Y-76650000D03*
D29*
X47510000Y-79190000D03*
X47510000Y-81730000D03*
X47510000Y-84270000D03*
X47510000Y-86810000D03*
X47510000Y-89350000D03*
X47510000Y-91890000D03*
X47510000Y-94430000D03*
X47510000Y-96970000D03*
X47510000Y-99510000D03*
X55110000Y-99510000D03*
X55110000Y-96970000D03*
X55110000Y-94430000D03*
X55110000Y-91890000D03*
X55110000Y-89350000D03*
X55110000Y-86810000D03*
X55110000Y-84270000D03*
X55110000Y-81730000D03*
X55110000Y-79190000D03*
X55110000Y-76650000D03*
D30*
X114300000Y-145050000D03*
X111760000Y-145050000D03*
X109220000Y-145050000D03*
D31*
X121920000Y-152400000D03*
D32*
X121920000Y-144780000D03*
D33*
X40640000Y-138700000D02*
X40640000Y-166640000D01*
X38100000Y-136160000D02*
X40640000Y-138700000D01*
X120650000Y-139970000D02*
X118110000Y-139970000D01*
X43180000Y-138700000D02*
X40640000Y-136160000D01*
X43180000Y-166640000D02*
X43180000Y-138700000D01*
X102870000Y-150130000D02*
X104211300Y-150130000D01*
X41910000Y-134890000D02*
X40640000Y-133620000D01*
X44450000Y-134890000D02*
X41910000Y-134890000D01*
X45720000Y-136160000D02*
X44450000Y-134890000D01*
X102870000Y-156480000D02*
X102870000Y-155138700D01*
X109474600Y-151105400D02*
X110450000Y-150130000D01*
X105074100Y-151105400D02*
X109474600Y-151105400D01*
X105074100Y-150992800D02*
X105074100Y-151105400D01*
X104211300Y-150130000D02*
X105074100Y-150992800D01*
X105074100Y-152934600D02*
X102870000Y-155138700D01*
X105074100Y-151105400D02*
X105074100Y-152934600D01*
X57330100Y-132530100D02*
X58420000Y-133620000D01*
X51889900Y-132530100D02*
X57330100Y-132530100D01*
X50800000Y-133620000D02*
X51889900Y-132530100D01*
X72200500Y-132539500D02*
X71120000Y-133620000D01*
X75119500Y-132539500D02*
X72200500Y-132539500D01*
X76200000Y-133620000D02*
X75119500Y-132539500D01*
X67310000Y-134890000D02*
X66040000Y-136160000D01*
X69850000Y-134890000D02*
X67310000Y-134890000D01*
X71120000Y-133620000D02*
X69850000Y-134890000D01*
X59690000Y-134890000D02*
X58420000Y-133620000D01*
X64770000Y-134890000D02*
X59690000Y-134890000D01*
X66040000Y-136160000D02*
X64770000Y-134890000D01*
X115570000Y-139970000D02*
X114444700Y-139970000D01*
X84474800Y-136814800D02*
X83820000Y-136160000D01*
X111852100Y-136814800D02*
X84474800Y-136814800D01*
X114444700Y-139407400D02*
X111852100Y-136814800D01*
X114444700Y-139970000D02*
X114444700Y-139407400D01*
X77470000Y-134890000D02*
X76200000Y-133620000D01*
X82550000Y-134890000D02*
X77470000Y-134890000D01*
X83820000Y-136160000D02*
X82550000Y-134890000D01*
X45720000Y-138700000D02*
X43180000Y-136160000D01*
X45720000Y-166640000D02*
X45720000Y-138700000D01*
X80128900Y-168028900D02*
X48260000Y-136160000D01*
X86842300Y-168028900D02*
X80128900Y-168028900D01*
X87711100Y-167160100D02*
X86842300Y-168028900D01*
X87711100Y-166640000D02*
X87711100Y-167160100D01*
X88900000Y-166640000D02*
X87711100Y-166640000D01*
X49530000Y-134890000D02*
X48260000Y-133620000D01*
X49530000Y-136462000D02*
X49530000Y-134890000D01*
X79708000Y-166640000D02*
X49530000Y-136462000D01*
X81280000Y-166640000D02*
X79708000Y-166640000D01*
X60425900Y-138165900D02*
X58420000Y-136160000D01*
X105583200Y-138165900D02*
X60425900Y-138165900D01*
X106824700Y-139407400D02*
X105583200Y-138165900D01*
X106824700Y-139970000D02*
X106824700Y-139407400D01*
X107950000Y-139970000D02*
X106824700Y-139970000D01*
X110490000Y-139970000D02*
X109364700Y-139970000D01*
X62515500Y-137715500D02*
X60960000Y-136160000D01*
X107672800Y-137715500D02*
X62515500Y-137715500D01*
X109364700Y-139407400D02*
X107672800Y-137715500D01*
X109364700Y-139970000D02*
X109364700Y-139407400D01*
X59419700Y-132079700D02*
X60960000Y-133620000D01*
X48262100Y-132079700D02*
X59419700Y-132079700D01*
X47174500Y-133167300D02*
X48262100Y-132079700D01*
X47174500Y-145234500D02*
X47174500Y-133167300D01*
X67391100Y-165451100D02*
X47174500Y-145234500D01*
X67391100Y-166640000D02*
X67391100Y-165451100D01*
X68580000Y-166640000D02*
X67391100Y-166640000D01*
X113030000Y-139970000D02*
X111904700Y-139970000D01*
X111904700Y-139407400D02*
X111904700Y-139970000D01*
X109762500Y-137265200D02*
X111904700Y-139407400D01*
X64605200Y-137265200D02*
X109762500Y-137265200D01*
X63500000Y-136160000D02*
X64605200Y-137265200D01*
X116657300Y-143780000D02*
X115387300Y-145050000D01*
X121920000Y-143780000D02*
X116657300Y-143780000D01*
X114300000Y-145050000D02*
X115387300Y-145050000D01*
X114300000Y-145050000D02*
X113212700Y-145050000D01*
X115570000Y-150130000D02*
X115570000Y-149154700D01*
X112505100Y-146914400D02*
X112917400Y-146502100D01*
X104734400Y-146914400D02*
X112505100Y-146914400D01*
X97790000Y-139970000D02*
X104734400Y-146914400D01*
X113212700Y-146206800D02*
X112917400Y-146502100D01*
X113212700Y-145050000D02*
X113212700Y-146206800D01*
X112917400Y-146502100D02*
X115570000Y-149154700D01*
X61026400Y-99510000D02*
X63566400Y-102050000D01*
X55110000Y-99510000D02*
X61026400Y-99510000D01*
X64291800Y-102050000D02*
X63566400Y-102050000D01*
X55110000Y-89350000D02*
X55110000Y-91890000D01*
X55110000Y-94430000D02*
X55110000Y-96970000D01*
X55110000Y-86810000D02*
X55110000Y-89350000D01*
X44800000Y-79190000D02*
X44250000Y-79740000D01*
X47510000Y-79190000D02*
X44800000Y-79190000D01*
X40842700Y-109174900D02*
X40842700Y-117290000D01*
X41617600Y-108400000D02*
X40842700Y-109174900D01*
X43266600Y-108400000D02*
X41617600Y-108400000D01*
X44017300Y-107649300D02*
X43266600Y-108400000D01*
X44017300Y-104590000D02*
X44017300Y-107649300D01*
X42430000Y-104590000D02*
X44017300Y-104590000D01*
X42430000Y-117290000D02*
X40842700Y-117290000D01*
X45260000Y-81730000D02*
X44250000Y-82740000D01*
X47510000Y-81730000D02*
X45260000Y-81730000D01*
X45720000Y-84270000D02*
X44250000Y-85740000D01*
X47510000Y-84270000D02*
X45720000Y-84270000D01*
X45580000Y-88740000D02*
X44250000Y-88740000D01*
X47510000Y-86810000D02*
X45580000Y-88740000D01*
X46640000Y-89350000D02*
X44250000Y-91740000D01*
X47510000Y-89350000D02*
X46640000Y-89350000D01*
X47100000Y-91890000D02*
X44250000Y-94740000D01*
X47510000Y-91890000D02*
X47100000Y-91890000D01*
X57670000Y-104590000D02*
X56082700Y-104590000D01*
X56082700Y-104301800D02*
X56082700Y-104590000D01*
X46885500Y-95104500D02*
X56082700Y-104301800D01*
X47510000Y-94480000D02*
X46885500Y-95104500D01*
X47510000Y-94430000D02*
X47510000Y-94480000D01*
X46885500Y-95104500D02*
X44250000Y-97740000D01*
X113030000Y-127270000D02*
X113030000Y-132350000D01*
X115570000Y-132350000D02*
X115570000Y-127270000D01*
X118110000Y-132350000D02*
X118110000Y-127270000D01*
X120650000Y-127270000D02*
X120650000Y-132350000D01*
X62750000Y-86810000D02*
X60210000Y-86810000D01*
X67016100Y-104729300D02*
X66290800Y-105454600D01*
X67016100Y-102459900D02*
X67016100Y-104729300D01*
X66381500Y-101825300D02*
X67016100Y-102459900D01*
X66290800Y-101825300D02*
X66381500Y-101825300D01*
X66290800Y-101100000D02*
X66290800Y-101825300D01*
X66290800Y-106180000D02*
X66290800Y-105454600D01*
X84340000Y-91890000D02*
X71640000Y-91890000D01*
X71640000Y-91890000D02*
X69790700Y-91890000D01*
X69790700Y-91890000D02*
X69790700Y-107130000D01*
X71640000Y-107130000D02*
X69903300Y-107130000D01*
X69903300Y-107130000D02*
X69790700Y-107130000D01*
X69695400Y-107130000D02*
X69790700Y-107130000D01*
X66290800Y-110534600D02*
X69695400Y-107130000D01*
X66290800Y-111260000D02*
X66290800Y-111078600D01*
X66290800Y-111078600D02*
X66290800Y-110534600D01*
X65085900Y-107384900D02*
X66290800Y-106180000D01*
X65085900Y-113235400D02*
X65085900Y-107384900D01*
X65735900Y-113885400D02*
X65085900Y-113235400D01*
X66861700Y-113885400D02*
X65735900Y-113885400D01*
X67047100Y-113700000D02*
X66861700Y-113885400D01*
X67047100Y-111834900D02*
X67047100Y-113700000D01*
X66290800Y-111078600D02*
X67047100Y-111834900D01*
X84340000Y-76650000D02*
X71640000Y-76650000D01*
X69790700Y-82309300D02*
X65290000Y-86810000D01*
X69790700Y-76650000D02*
X69790700Y-82309300D01*
X71640000Y-76650000D02*
X69790700Y-76650000D01*
X29730000Y-127450000D02*
X31071300Y-127450000D01*
X32411400Y-128790100D02*
X31071300Y-127450000D01*
X76678700Y-128790100D02*
X32411400Y-128790100D01*
X79274400Y-126194400D02*
X76678700Y-128790100D01*
X79274400Y-118545600D02*
X79274400Y-126194400D01*
X80530000Y-117290000D02*
X79274400Y-118545600D01*
X79274400Y-126194400D02*
X80530000Y-127450000D01*
X66290800Y-113160000D02*
X66290800Y-112434600D01*
X29730000Y-99510000D02*
X31071300Y-99510000D01*
X31155700Y-99594400D02*
X31071300Y-99510000D01*
X37505100Y-99594400D02*
X31155700Y-99594400D01*
X43859500Y-93240000D02*
X37505100Y-99594400D01*
X44868600Y-93240000D02*
X43859500Y-93240000D01*
X47092700Y-91015900D02*
X44868600Y-93240000D01*
X48478900Y-91015900D02*
X47092700Y-91015900D01*
X50551000Y-93088000D02*
X48478900Y-91015900D01*
X58868000Y-93088000D02*
X50551000Y-93088000D01*
X60210000Y-94430000D02*
X58868000Y-93088000D01*
X62005000Y-92635000D02*
X60210000Y-94430000D01*
X66049800Y-92635000D02*
X62005000Y-92635000D01*
X67930400Y-94515600D02*
X66049800Y-92635000D01*
X67930400Y-107748900D02*
X67930400Y-94515600D01*
X65565400Y-110113900D02*
X67930400Y-107748900D01*
X65565400Y-111800000D02*
X65565400Y-110113900D01*
X66200000Y-112434600D02*
X65565400Y-111800000D01*
X66290800Y-112434600D02*
X66200000Y-112434600D01*
X66290800Y-108080000D02*
X66290800Y-107354600D01*
X61425100Y-95754900D02*
X62750000Y-94430000D01*
X58621900Y-95754900D02*
X61425100Y-95754900D01*
X56434400Y-93567400D02*
X58621900Y-95754900D01*
X47168900Y-93567400D02*
X56434400Y-93567400D01*
X45848500Y-94887800D02*
X47168900Y-93567400D01*
X45848500Y-95114200D02*
X45848500Y-94887800D01*
X44722700Y-96240000D02*
X45848500Y-95114200D01*
X42435600Y-96240000D02*
X44722700Y-96240000D01*
X36625600Y-102050000D02*
X42435600Y-96240000D01*
X29730000Y-102050000D02*
X36625600Y-102050000D01*
X66381500Y-107354600D02*
X66290800Y-107354600D01*
X67475100Y-106261000D02*
X66381500Y-107354600D01*
X67475100Y-94697200D02*
X67475100Y-106261000D01*
X65863200Y-93085300D02*
X67475100Y-94697200D01*
X64094700Y-93085300D02*
X65863200Y-93085300D01*
X62750000Y-94430000D02*
X64094700Y-93085300D01*
X29730000Y-104590000D02*
X29730000Y-103401100D01*
X66290800Y-103000000D02*
X65565400Y-103000000D01*
X65565400Y-103000000D02*
X65219000Y-102653500D01*
X44843700Y-103401100D02*
X29730000Y-103401100D01*
X47125700Y-105683100D02*
X44843700Y-103401100D01*
X62189400Y-105683100D02*
X47125700Y-105683100D01*
X65219000Y-102653500D02*
X62189400Y-105683100D01*
X65290000Y-102582500D02*
X65219000Y-102653500D01*
X65290000Y-94430000D02*
X65290000Y-102582500D01*
X33320000Y-94430000D02*
X29730000Y-94430000D01*
X36630000Y-97740000D02*
X33320000Y-94430000D01*
X33780000Y-91890000D02*
X36630000Y-94740000D01*
X29730000Y-91890000D02*
X33780000Y-91890000D01*
X34240000Y-89350000D02*
X29730000Y-89350000D01*
X36630000Y-91740000D02*
X34240000Y-89350000D01*
X35888900Y-87998900D02*
X29730000Y-87998900D01*
X36630000Y-88740000D02*
X35888900Y-87998900D01*
X29730000Y-86810000D02*
X29730000Y-87998900D01*
X36348900Y-85458900D02*
X29730000Y-85458900D01*
X36630000Y-85740000D02*
X36348900Y-85458900D01*
X29730000Y-84270000D02*
X29730000Y-85458900D01*
X36451100Y-82918900D02*
X29730000Y-82918900D01*
X36630000Y-82740000D02*
X36451100Y-82918900D01*
X29730000Y-81730000D02*
X29730000Y-82918900D01*
X31621300Y-79740000D02*
X31071300Y-79190000D01*
X36630000Y-79740000D02*
X31621300Y-79740000D01*
X29730000Y-79190000D02*
X31071300Y-79190000D01*
X31161300Y-76740000D02*
X31071300Y-76650000D01*
X36630000Y-76740000D02*
X31161300Y-76740000D01*
X29730000Y-76650000D02*
X31071300Y-76650000D01*
X71640000Y-81730000D02*
X73489300Y-81730000D01*
X73489300Y-81730000D02*
X75739700Y-83980300D01*
X77990000Y-81730000D02*
X75739700Y-83980300D01*
X84340000Y-81730000D02*
X77990000Y-81730000D01*
X75739700Y-83980300D02*
X72910000Y-86810000D01*
X28384900Y-107136000D02*
X29730000Y-108481100D01*
X28384900Y-98459500D02*
X28384900Y-107136000D01*
X28523400Y-98321000D02*
X28384900Y-98459500D01*
X33232100Y-98321000D02*
X28523400Y-98321000D01*
X33976000Y-99064900D02*
X33232100Y-98321000D01*
X37180900Y-99064900D02*
X33976000Y-99064900D01*
X39263700Y-96982100D02*
X37180900Y-99064900D01*
X39263700Y-91831200D02*
X39263700Y-96982100D01*
X43854900Y-87240000D02*
X39263700Y-91831200D01*
X44949200Y-87240000D02*
X43854900Y-87240000D01*
X46241800Y-85947400D02*
X44949200Y-87240000D01*
X57312300Y-85947400D02*
X46241800Y-85947400D01*
X59501400Y-88136500D02*
X57312300Y-85947400D01*
X71583500Y-88136500D02*
X59501400Y-88136500D01*
X72910000Y-86810000D02*
X71583500Y-88136500D01*
X29730000Y-109670000D02*
X29730000Y-108481100D01*
X71640000Y-96970000D02*
X73489300Y-96970000D01*
X75081300Y-96970000D02*
X74285300Y-97766000D01*
X84340000Y-96970000D02*
X75081300Y-96970000D01*
X74285300Y-97766000D02*
X73489300Y-96970000D01*
X74285300Y-100674700D02*
X74285300Y-97766000D01*
X72910000Y-102050000D02*
X74285300Y-100674700D01*
X73505800Y-102645800D02*
X72910000Y-102050000D01*
X73505800Y-107993100D02*
X73505800Y-102645800D01*
X69790600Y-111708300D02*
X73505800Y-107993100D01*
X69790600Y-112480800D02*
X69790600Y-111708300D01*
X58807300Y-123464100D02*
X69790600Y-112480800D01*
X40984100Y-123464100D02*
X58807300Y-123464100D01*
X30918900Y-113398900D02*
X40984100Y-123464100D01*
X29730000Y-113398900D02*
X30918900Y-113398900D01*
X29730000Y-112210000D02*
X29730000Y-113398900D01*
X71640000Y-112210000D02*
X73489300Y-112210000D01*
X73489300Y-116710700D02*
X72910000Y-117290000D01*
X73489300Y-112210000D02*
X73489300Y-116710700D01*
X84340000Y-112210000D02*
X73489300Y-112210000D01*
X72910000Y-122370000D02*
X72910000Y-127450000D01*
X42430000Y-122370000D02*
X57670000Y-122370000D01*
X57670000Y-122370000D02*
X59257300Y-122370000D01*
X64291800Y-112210000D02*
X64291800Y-112935300D01*
X64291800Y-117335500D02*
X64291800Y-112935300D01*
X59257300Y-122370000D02*
X64291800Y-117335500D01*
X42430000Y-109670000D02*
X57670000Y-109670000D01*
X57670000Y-109670000D02*
X59257300Y-109670000D01*
X61797300Y-107130000D02*
X64291800Y-107130000D01*
X59257300Y-109670000D02*
X61797300Y-107130000D01*
X102870000Y-132350000D02*
X97790000Y-132350000D01*
X97790000Y-132350000D02*
X95250000Y-132350000D01*
X120832700Y-152558600D02*
X116911300Y-156480000D01*
X120832700Y-151400000D02*
X120832700Y-152558600D01*
X115570000Y-156480000D02*
X116911300Y-156480000D01*
X121920000Y-151400000D02*
X120832700Y-151400000D01*
M02*
