G04 #@! TF.FileFunction,Other,User*
%FSLAX46Y46*%
G04 Gerber Fmt 4.6, Leading zero omitted, Abs format (unit mm)*
G04 Created by KiCad (PCBNEW 4.0.2+dfsg1-stable) date 2019年09月16日 21時23分18秒*
%MOMM*%
G01*
G04 APERTURE LIST*
%ADD10C,0.100000*%
%ADD11C,0.050000*%
G04 APERTURE END LIST*
D10*
D11*
X116470000Y-151630000D02*
X112170000Y-151630000D01*
X112170000Y-151630000D02*
X112170000Y-148630000D01*
X112170000Y-148630000D02*
X116470000Y-148630000D01*
X116470000Y-148630000D02*
X116470000Y-151630000D01*
X107050000Y-148630000D02*
X111350000Y-148630000D01*
X111350000Y-148630000D02*
X111350000Y-151630000D01*
X111350000Y-151630000D02*
X107050000Y-151630000D01*
X107050000Y-151630000D02*
X107050000Y-148630000D01*
X111280000Y-159810000D02*
X111280000Y-163310000D01*
X117330000Y-159810000D02*
X117330000Y-163310000D01*
X111280000Y-159810000D02*
X117330000Y-159810000D01*
X111280000Y-163310000D02*
X117330000Y-163310000D01*
X111280000Y-164890000D02*
X111280000Y-168390000D01*
X117330000Y-164890000D02*
X117330000Y-168390000D01*
X111280000Y-164890000D02*
X117330000Y-164890000D01*
X111280000Y-168390000D02*
X117330000Y-168390000D01*
X111280000Y-154730000D02*
X111280000Y-158230000D01*
X117330000Y-154730000D02*
X117330000Y-158230000D01*
X111280000Y-154730000D02*
X117330000Y-154730000D01*
X111280000Y-158230000D02*
X117330000Y-158230000D01*
X104620000Y-151880000D02*
X104620000Y-148380000D01*
X98570000Y-151880000D02*
X98570000Y-148380000D01*
X104620000Y-151880000D02*
X98570000Y-151880000D01*
X104620000Y-148380000D02*
X98570000Y-148380000D01*
X104620000Y-158230000D02*
X104620000Y-154730000D01*
X98570000Y-158230000D02*
X98570000Y-154730000D01*
X104620000Y-158230000D02*
X98570000Y-158230000D01*
X104620000Y-154730000D02*
X98570000Y-154730000D01*
X104620000Y-163310000D02*
X104620000Y-159810000D01*
X98570000Y-163310000D02*
X98570000Y-159810000D01*
X104620000Y-163310000D02*
X98570000Y-163310000D01*
X104620000Y-159810000D02*
X98570000Y-159810000D01*
X104620000Y-168390000D02*
X104620000Y-164890000D01*
X98570000Y-168390000D02*
X98570000Y-164890000D01*
X104620000Y-168390000D02*
X98570000Y-168390000D01*
X104620000Y-164890000D02*
X98570000Y-164890000D01*
X111280000Y-125520000D02*
X111280000Y-129020000D01*
X122430000Y-125520000D02*
X122430000Y-129020000D01*
X111280000Y-125520000D02*
X122430000Y-125520000D01*
X111280000Y-129020000D02*
X122430000Y-129020000D01*
X95730000Y-168390000D02*
X95730000Y-164890000D01*
X79530000Y-168390000D02*
X79530000Y-164890000D01*
X95730000Y-168390000D02*
X79530000Y-168390000D01*
X95730000Y-164890000D02*
X79530000Y-164890000D01*
X60170000Y-168390000D02*
X60170000Y-164890000D01*
X38870000Y-168390000D02*
X38870000Y-164890000D01*
X60170000Y-168390000D02*
X38870000Y-168390000D01*
X60170000Y-164890000D02*
X38870000Y-164890000D01*
X75410000Y-168390000D02*
X75410000Y-164890000D01*
X64260000Y-168390000D02*
X64260000Y-164890000D01*
X75410000Y-168390000D02*
X64260000Y-168390000D01*
X75410000Y-164890000D02*
X64260000Y-164890000D01*
X37310000Y-168390000D02*
X37310000Y-164890000D01*
X28710000Y-168390000D02*
X28710000Y-164890000D01*
X37310000Y-168390000D02*
X28710000Y-168390000D01*
X37310000Y-164890000D02*
X28710000Y-164890000D01*
X31480000Y-123160000D02*
X27980000Y-123160000D01*
X31480000Y-129210000D02*
X27980000Y-129210000D01*
X31480000Y-123160000D02*
X31480000Y-129210000D01*
X27980000Y-123160000D02*
X27980000Y-129210000D01*
X31480000Y-97760000D02*
X27980000Y-97760000D01*
X31480000Y-106360000D02*
X27980000Y-106360000D01*
X31480000Y-97760000D02*
X31480000Y-106360000D01*
X27980000Y-97760000D02*
X27980000Y-106360000D01*
X27980000Y-96180000D02*
X31480000Y-96180000D01*
X27980000Y-74880000D02*
X31480000Y-74880000D01*
X27980000Y-96180000D02*
X27980000Y-74880000D01*
X31480000Y-96180000D02*
X31480000Y-74880000D01*
X31480000Y-107920000D02*
X27980000Y-107920000D01*
X31480000Y-119070000D02*
X27980000Y-119070000D01*
X31480000Y-107920000D02*
X31480000Y-119070000D01*
X27980000Y-107920000D02*
X27980000Y-119070000D01*
X63690000Y-113860000D02*
X63690000Y-110560000D01*
X63690000Y-110560000D02*
X66890000Y-110560000D01*
X66890000Y-110560000D02*
X66890000Y-113860000D01*
X66890000Y-113860000D02*
X63690000Y-113860000D01*
X63690000Y-108780000D02*
X63690000Y-105480000D01*
X63690000Y-105480000D02*
X66890000Y-105480000D01*
X66890000Y-105480000D02*
X66890000Y-108780000D01*
X66890000Y-108780000D02*
X63690000Y-108780000D01*
X63690000Y-103700000D02*
X63690000Y-100400000D01*
X63690000Y-100400000D02*
X66890000Y-100400000D01*
X66890000Y-100400000D02*
X66890000Y-103700000D01*
X66890000Y-103700000D02*
X63690000Y-103700000D01*
X96290000Y-141220000D02*
X96290000Y-131120000D01*
X99290000Y-141220000D02*
X96290000Y-141220000D01*
X96290000Y-131120000D02*
X99290000Y-131120000D01*
X99290000Y-141220000D02*
X99290000Y-131120000D01*
X96750000Y-131100000D02*
X96750000Y-141200000D01*
X93750000Y-131100000D02*
X96750000Y-131100000D01*
X96750000Y-141200000D02*
X93750000Y-141200000D01*
X93750000Y-131100000D02*
X93750000Y-141200000D01*
X45500000Y-78240000D02*
X35400000Y-78240000D01*
X45500000Y-75240000D02*
X45500000Y-78240000D01*
X35400000Y-78240000D02*
X35400000Y-75240000D01*
X45500000Y-75240000D02*
X35400000Y-75240000D01*
X45500000Y-81240000D02*
X35400000Y-81240000D01*
X45500000Y-78240000D02*
X45500000Y-81240000D01*
X35400000Y-81240000D02*
X35400000Y-78240000D01*
X45500000Y-78240000D02*
X35400000Y-78240000D01*
X45500000Y-84240000D02*
X35400000Y-84240000D01*
X45500000Y-81240000D02*
X45500000Y-84240000D01*
X35400000Y-84240000D02*
X35400000Y-81240000D01*
X45500000Y-81240000D02*
X35400000Y-81240000D01*
X45500000Y-87240000D02*
X35400000Y-87240000D01*
X45500000Y-84240000D02*
X45500000Y-87240000D01*
X35400000Y-87240000D02*
X35400000Y-84240000D01*
X45500000Y-84240000D02*
X35400000Y-84240000D01*
X45500000Y-90240000D02*
X35400000Y-90240000D01*
X45500000Y-87240000D02*
X45500000Y-90240000D01*
X35400000Y-90240000D02*
X35400000Y-87240000D01*
X45500000Y-87240000D02*
X35400000Y-87240000D01*
X58710000Y-95680000D02*
X58710000Y-85580000D01*
X61710000Y-95680000D02*
X58710000Y-95680000D01*
X58710000Y-85580000D02*
X61710000Y-85580000D01*
X61710000Y-95680000D02*
X61710000Y-85580000D01*
X45500000Y-93240000D02*
X35400000Y-93240000D01*
X45500000Y-90240000D02*
X45500000Y-93240000D01*
X35400000Y-93240000D02*
X35400000Y-90240000D01*
X45500000Y-90240000D02*
X35400000Y-90240000D01*
X45500000Y-96240000D02*
X35400000Y-96240000D01*
X45500000Y-93240000D02*
X45500000Y-96240000D01*
X35400000Y-96240000D02*
X35400000Y-93240000D01*
X45500000Y-93240000D02*
X35400000Y-93240000D01*
X45500000Y-99240000D02*
X35400000Y-99240000D01*
X45500000Y-96240000D02*
X45500000Y-99240000D01*
X35400000Y-99240000D02*
X35400000Y-96240000D01*
X45500000Y-96240000D02*
X35400000Y-96240000D01*
X61250000Y-95680000D02*
X61250000Y-85580000D01*
X64250000Y-95680000D02*
X61250000Y-95680000D01*
X61250000Y-85580000D02*
X64250000Y-85580000D01*
X64250000Y-95680000D02*
X64250000Y-85580000D01*
X81780000Y-128950000D02*
X71680000Y-128950000D01*
X81780000Y-125950000D02*
X81780000Y-128950000D01*
X71680000Y-128950000D02*
X71680000Y-125950000D01*
X81780000Y-125950000D02*
X71680000Y-125950000D01*
X81780000Y-118790000D02*
X71680000Y-118790000D01*
X81780000Y-115790000D02*
X81780000Y-118790000D01*
X71680000Y-118790000D02*
X71680000Y-115790000D01*
X81780000Y-115790000D02*
X71680000Y-115790000D01*
X81780000Y-103550000D02*
X71680000Y-103550000D01*
X81780000Y-100550000D02*
X81780000Y-103550000D01*
X71680000Y-103550000D02*
X71680000Y-100550000D01*
X81780000Y-100550000D02*
X71680000Y-100550000D01*
X81780000Y-88310000D02*
X71680000Y-88310000D01*
X81780000Y-85310000D02*
X81780000Y-88310000D01*
X71680000Y-88310000D02*
X71680000Y-85310000D01*
X81780000Y-85310000D02*
X71680000Y-85310000D01*
X63790000Y-95680000D02*
X63790000Y-85580000D01*
X66790000Y-95680000D02*
X63790000Y-95680000D01*
X63790000Y-85580000D02*
X66790000Y-85580000D01*
X66790000Y-95680000D02*
X66790000Y-85580000D01*
X71360000Y-124870000D02*
X71360000Y-119870000D01*
X71360000Y-119870000D02*
X82060000Y-119870000D01*
X82060000Y-119870000D02*
X82060000Y-124870000D01*
X82060000Y-124870000D02*
X71360000Y-124870000D01*
X123100000Y-130950000D02*
X100400000Y-130950000D01*
X123100000Y-141350000D02*
X100400000Y-141350000D01*
X123100000Y-130950000D02*
X123100000Y-141350000D01*
X100400000Y-130950000D02*
X100400000Y-141350000D01*
X124420000Y-153950000D02*
X119420000Y-153950000D01*
X119420000Y-153950000D02*
X119420000Y-143250000D01*
X119420000Y-143250000D02*
X124420000Y-143250000D01*
X124420000Y-143250000D02*
X124420000Y-153950000D01*
M02*
