M48
;DRILL file {KiCad 4.0.2+dfsg1-stable} date 2019年09月16日 23時03分09秒
;FORMAT={-:-/ absolute / metric / decimal}
FMAT,2
METRIC,TZ
T1C0.650
T2C0.762
T3C0.800
T4C0.800
T5C0.813
T6C1.000
T7C1.001
T8C1.016
T9C2.750
%
G90
G05
M71
T1
X47.51Y-76.65
X47.51Y-79.19
X47.51Y-81.73
X47.51Y-84.27
X47.51Y-86.81
X47.51Y-89.35
X47.51Y-91.89
X47.51Y-94.43
X47.51Y-96.97
X47.51Y-99.51
X55.11Y-76.65
X55.11Y-79.19
X55.11Y-81.73
X55.11Y-84.27
X55.11Y-86.81
X55.11Y-89.35
X55.11Y-91.89
X55.11Y-94.43
X55.11Y-96.97
X55.11Y-99.51
T2
X72.91Y-122.37
X80.53Y-122.37
X121.92Y-144.78
X121.92Y-152.4
T3
X42.43Y-104.59
X42.43Y-107.13
X42.43Y-109.67
X42.43Y-112.21
X42.43Y-114.75
X42.43Y-117.29
X42.43Y-119.83
X42.43Y-122.37
X42.43Y-124.91
X42.43Y-127.45
X57.67Y-104.59
X57.67Y-107.13
X57.67Y-109.67
X57.67Y-112.21
X57.67Y-114.75
X57.67Y-117.29
X57.67Y-119.83
X57.67Y-122.37
X57.67Y-124.91
X57.67Y-127.45
X102.87Y-132.35
X102.87Y-139.97
X105.41Y-132.35
X105.41Y-139.97
X107.95Y-132.35
X107.95Y-139.97
X107.95Y-150.13
X110.49Y-132.35
X110.49Y-139.97
X113.03Y-132.35
X113.03Y-139.97
X115.57Y-132.35
X115.57Y-139.97
X115.57Y-150.13
X118.11Y-132.35
X118.11Y-139.97
X120.65Y-132.35
X120.65Y-139.97
T4
X110.45Y-150.13
X113.07Y-150.13
T5
X71.64Y-76.65
X71.64Y-81.73
X71.64Y-91.89
X71.64Y-96.97
X71.64Y-107.13
X71.64Y-112.21
X84.34Y-76.65
X84.34Y-81.73
X84.34Y-91.89
X84.34Y-96.97
X84.34Y-107.13
X84.34Y-112.21
T6
X35.945Y-157.999
X35.945Y-160.539
X38.485Y-157.999
X38.485Y-160.539
X41.025Y-157.999
X41.025Y-160.539
X43.565Y-157.999
X43.565Y-160.539
X46.105Y-157.999
X46.105Y-160.539
X48.645Y-157.999
X48.645Y-160.539
X51.185Y-157.999
X51.185Y-160.539
X53.725Y-157.999
X53.725Y-160.539
X56.265Y-157.999
X56.265Y-160.539
X58.805Y-157.999
X58.805Y-160.539
X61.345Y-157.999
X61.345Y-160.539
X63.885Y-157.999
X63.885Y-160.539
X66.425Y-157.999
X66.425Y-160.539
X68.965Y-157.999
X68.965Y-160.539
X71.505Y-157.999
X71.505Y-160.539
X74.045Y-157.999
X74.045Y-160.539
X76.585Y-157.999
X76.585Y-160.539
X79.125Y-157.999
X79.125Y-160.539
X81.665Y-157.999
X81.665Y-160.539
X84.205Y-157.999
X84.205Y-160.539
T7
X36.63Y-76.74
X36.63Y-79.74
X36.63Y-82.74
X36.63Y-85.74
X36.63Y-88.74
X36.63Y-91.74
X36.63Y-94.74
X36.63Y-97.74
X44.25Y-76.74
X44.25Y-79.74
X44.25Y-82.74
X44.25Y-85.74
X44.25Y-88.74
X44.25Y-91.74
X44.25Y-94.74
X44.25Y-97.74
X60.21Y-86.81
X60.21Y-94.43
X62.75Y-86.81
X62.75Y-94.43
X65.29Y-86.81
X65.29Y-94.43
X72.91Y-86.81
X72.91Y-102.05
X72.91Y-117.29
X72.91Y-127.45
X80.53Y-86.81
X80.53Y-102.05
X80.53Y-117.29
X80.53Y-127.45
X95.25Y-132.35
X95.25Y-139.97
X97.79Y-132.35
X97.79Y-139.97
T8
X29.73Y-76.65
X29.73Y-79.19
X29.73Y-81.73
X29.73Y-84.27
X29.73Y-86.81
X29.73Y-89.35
X29.73Y-91.89
X29.73Y-94.43
X29.73Y-99.51
X29.73Y-102.05
X29.73Y-104.59
X29.73Y-109.67
X29.73Y-112.21
X29.73Y-114.75
X29.73Y-117.29
X29.73Y-124.91
X29.73Y-127.45
X30.075Y-166.269
X32.615Y-166.269
X35.155Y-166.269
X37.695Y-166.269
X40.235Y-166.269
X42.775Y-166.269
X48.075Y-166.269
X50.615Y-166.269
X53.155Y-166.269
X55.695Y-166.269
X62.075Y-166.269
X64.615Y-166.269
X67.155Y-166.269
X69.695Y-166.269
X72.235Y-166.269
X74.775Y-166.269
X77.315Y-166.269
X79.855Y-166.269
X85.075Y-166.269
X87.615Y-166.269
X90.155Y-166.269
X100.33Y-150.13
X100.33Y-156.48
X100.33Y-161.56
X100.33Y-166.64
X102.87Y-150.13
X102.87Y-156.48
X102.87Y-161.56
X102.87Y-166.64
X109.22Y-145.05
X111.76Y-145.05
X113.03Y-127.27
X113.03Y-156.48
X113.03Y-161.56
X113.03Y-166.64
X114.3Y-145.05
X115.57Y-127.27
X115.57Y-156.48
X115.57Y-161.56
X115.57Y-166.64
X118.11Y-127.27
X120.65Y-127.27
T9
X31.075Y-136.269
X31.075Y-159.269
X89.075Y-136.269
X89.075Y-159.269
T0
M30
