G04 #@! TF.FileFunction,Soldermask,Bot*
%FSLAX46Y46*%
G04 Gerber Fmt 4.6, Leading zero omitted, Abs format (unit mm)*
G04 Created by KiCad (PCBNEW 4.0.2+dfsg1-stable) date 2019年09月16日 23時03分05秒*
%MOMM*%
G01*
G04 APERTURE LIST*
%ADD10C,0.100000*%
%ADD11R,1.908000X1.908000*%
%ADD12C,1.908000*%
%ADD13C,3.150000*%
%ADD14R,1.700000X1.700000*%
%ADD15C,1.700000*%
%ADD16R,2.432000X2.432000*%
%ADD17O,2.432000X2.432000*%
%ADD18R,2.127200X2.432000*%
%ADD19O,2.127200X2.432000*%
%ADD20R,2.432000X2.127200*%
%ADD21O,2.432000X2.127200*%
%ADD22C,2.398980*%
%ADD23O,2.924000X1.924000*%
%ADD24R,2.224000X1.924000*%
%ADD25O,2.224000X1.924000*%
%ADD26O,3.448000X2.127200*%
%ADD27O,2.000000X2.700000*%
%ADD28R,1.450000X1.450000*%
%ADD29C,1.450000*%
%ADD30O,1.924000X3.448000*%
%ADD31R,1.924000X2.224000*%
%ADD32O,1.924000X2.224000*%
G04 APERTURE END LIST*
D10*
D11*
X84205200Y-157999000D03*
D12*
X84205200Y-160539000D03*
X81665200Y-157999000D03*
X81665200Y-160539000D03*
X79125200Y-157999000D03*
X79125200Y-160539000D03*
X76585200Y-157999000D03*
X76585200Y-160539000D03*
X74045200Y-157999000D03*
X74045200Y-160539000D03*
X71505200Y-157999000D03*
X71505200Y-160539000D03*
X68965200Y-157999000D03*
X68965200Y-160539000D03*
X66425200Y-157999000D03*
X66425200Y-160539000D03*
X63885200Y-157999000D03*
X63885200Y-160539000D03*
X61345200Y-157999000D03*
X61345200Y-160539000D03*
X58805200Y-157999000D03*
X58805200Y-160539000D03*
X56265200Y-157999000D03*
X56265200Y-160539000D03*
X53725200Y-157999000D03*
X53725200Y-160539000D03*
X51185200Y-157999000D03*
X51185200Y-160539000D03*
X48645200Y-157999000D03*
X48645200Y-160539000D03*
X46105200Y-157999000D03*
X46105200Y-160539000D03*
X43565200Y-157999000D03*
X43565200Y-160539000D03*
X41025200Y-157999000D03*
X41025200Y-160539000D03*
X38485200Y-157999000D03*
X38485200Y-160539000D03*
X35945200Y-157999000D03*
X35945200Y-160539000D03*
D13*
X89075200Y-136269000D03*
X89075200Y-159269000D03*
X31075200Y-136269000D03*
X31075200Y-159269000D03*
D14*
X115570000Y-150130000D03*
D15*
X113070000Y-150130000D03*
D14*
X107950000Y-150130000D03*
D15*
X110450000Y-150130000D03*
D16*
X113030000Y-161560000D03*
D17*
X115570000Y-161560000D03*
D16*
X113030000Y-166640000D03*
D17*
X115570000Y-166640000D03*
D16*
X113030000Y-156480000D03*
D17*
X115570000Y-156480000D03*
D16*
X102870000Y-150130000D03*
D17*
X100330000Y-150130000D03*
D16*
X102870000Y-156480000D03*
D17*
X100330000Y-156480000D03*
D16*
X102870000Y-161560000D03*
D17*
X100330000Y-161560000D03*
D16*
X102870000Y-166640000D03*
D17*
X100330000Y-166640000D03*
D18*
X113030000Y-127270000D03*
D19*
X115570000Y-127270000D03*
X118110000Y-127270000D03*
X120650000Y-127270000D03*
D18*
X30075200Y-166269000D03*
D19*
X32615200Y-166269000D03*
X35155200Y-166269000D03*
X37695200Y-166269000D03*
X40235200Y-166269000D03*
X42775200Y-166269000D03*
D18*
X62075200Y-166269000D03*
D19*
X64615200Y-166269000D03*
X67155200Y-166269000D03*
X69695200Y-166269000D03*
X72235200Y-166269000D03*
X74775200Y-166269000D03*
X77315200Y-166269000D03*
X79855200Y-166269000D03*
D18*
X48075200Y-166269000D03*
D19*
X50615200Y-166269000D03*
X53155200Y-166269000D03*
X55695200Y-166269000D03*
D18*
X85075200Y-166269000D03*
D19*
X87615200Y-166269000D03*
X90155200Y-166269000D03*
D16*
X29730000Y-124910000D03*
D17*
X29730000Y-127450000D03*
D20*
X29730000Y-99510000D03*
D21*
X29730000Y-102050000D03*
X29730000Y-104590000D03*
D20*
X29730000Y-94430000D03*
D21*
X29730000Y-91890000D03*
X29730000Y-89350000D03*
X29730000Y-86810000D03*
X29730000Y-84270000D03*
X29730000Y-81730000D03*
X29730000Y-79190000D03*
X29730000Y-76650000D03*
D20*
X29730000Y-109670000D03*
D21*
X29730000Y-112210000D03*
X29730000Y-114750000D03*
X29730000Y-117290000D03*
D22*
X97790000Y-139970000D03*
X97790000Y-132350000D03*
X95250000Y-132350000D03*
X95250000Y-139970000D03*
X44250000Y-76740000D03*
X36630000Y-76740000D03*
X44250000Y-79740000D03*
X36630000Y-79740000D03*
X44250000Y-82740000D03*
X36630000Y-82740000D03*
X44250000Y-85740000D03*
X36630000Y-85740000D03*
X44250000Y-88740000D03*
X36630000Y-88740000D03*
X60210000Y-94430000D03*
X60210000Y-86810000D03*
X44250000Y-91740000D03*
X36630000Y-91740000D03*
X44250000Y-94740000D03*
X36630000Y-94740000D03*
X44250000Y-97740000D03*
X36630000Y-97740000D03*
X62750000Y-94430000D03*
X62750000Y-86810000D03*
X80530000Y-127450000D03*
X72910000Y-127450000D03*
X80530000Y-117290000D03*
X72910000Y-117290000D03*
X80530000Y-102050000D03*
X72910000Y-102050000D03*
X80530000Y-86810000D03*
X72910000Y-86810000D03*
X65290000Y-94430000D03*
X65290000Y-86810000D03*
D23*
X57670000Y-127450000D03*
X57670000Y-124910000D03*
X57670000Y-122370000D03*
X57670000Y-119830000D03*
X57670000Y-117290000D03*
X42430000Y-117290000D03*
X42430000Y-119830000D03*
X42430000Y-122370000D03*
X42430000Y-124910000D03*
X42430000Y-127450000D03*
X57670000Y-114750000D03*
X57670000Y-112210000D03*
X57670000Y-109670000D03*
X57670000Y-107130000D03*
X57670000Y-104590000D03*
X42430000Y-104590000D03*
X42430000Y-107130000D03*
X42430000Y-109670000D03*
X42430000Y-112210000D03*
X42430000Y-114750000D03*
D24*
X72910000Y-122370000D03*
D25*
X80530000Y-122370000D03*
D26*
X71640000Y-112210000D03*
X71640000Y-107130000D03*
X84340000Y-112210000D03*
X84340000Y-107130000D03*
X71640000Y-96970000D03*
X71640000Y-91890000D03*
X84340000Y-96970000D03*
X84340000Y-91890000D03*
X71640000Y-81730000D03*
X71640000Y-76650000D03*
X84340000Y-81730000D03*
X84340000Y-76650000D03*
D27*
X120650000Y-132350000D03*
X118110000Y-132350000D03*
X115570000Y-132350000D03*
X113030000Y-132350000D03*
X110490000Y-132350000D03*
X107950000Y-132350000D03*
X105410000Y-132350000D03*
X102870000Y-132350000D03*
X102870000Y-139970000D03*
X105410000Y-139970000D03*
X107950000Y-139970000D03*
X110490000Y-139970000D03*
X113030000Y-139970000D03*
X115570000Y-139970000D03*
X118110000Y-139970000D03*
X120650000Y-139970000D03*
D28*
X47510000Y-76650000D03*
D29*
X47510000Y-79190000D03*
X47510000Y-81730000D03*
X47510000Y-84270000D03*
X47510000Y-86810000D03*
X47510000Y-89350000D03*
X47510000Y-91890000D03*
X47510000Y-94430000D03*
X47510000Y-96970000D03*
X47510000Y-99510000D03*
X55110000Y-99510000D03*
X55110000Y-96970000D03*
X55110000Y-94430000D03*
X55110000Y-91890000D03*
X55110000Y-89350000D03*
X55110000Y-86810000D03*
X55110000Y-84270000D03*
X55110000Y-81730000D03*
X55110000Y-79190000D03*
X55110000Y-76650000D03*
D30*
X114300000Y-145050000D03*
X111760000Y-145050000D03*
X109220000Y-145050000D03*
D31*
X121920000Y-152400000D03*
D32*
X121920000Y-144780000D03*
M02*
